<?xml version="1.0" encoding="UTF-8" standalone="no"?>
<!-- Created with Inkscape (http://www.inkscape.org/) -->

<svg
   xmlns:dc="http://purl.org/dc/elements/1.1/"
   xmlns:cc="http://creativecommons.org/ns#"
   xmlns:rdf="http://www.w3.org/1999/02/22-rdf-syntax-ns#"
   xmlns:svg="http://www.w3.org/2000/svg"
   xmlns="http://www.w3.org/2000/svg"
   xmlns:sodipodi="http://sodipodi.sourceforge.net/DTD/sodipodi-0.dtd"
   xmlns:inkscape="http://www.inkscape.org/namespaces/inkscape"
   id="svg2"
   version="1.1"
   inkscape:version="0.91 r13725"
   xml:space="preserve"
   width="339.90637"
   height="262.48444"
   viewBox="0 0 339.90637 262.48444"
   sodipodi:docname="gainAttenuation.svg"><metadata
     id="metadata8"><rdf:RDF><cc:Work
         rdf:about=""><dc:format>image/svg+xml</dc:format><dc:type
           rdf:resource="http://purl.org/dc/dcmitype/StillImage" /><dc:title></dc:title></cc:Work></rdf:RDF></metadata><defs
     id="defs6" /><sodipodi:namedview
     pagecolor="#ffffff"
     bordercolor="#666666"
     borderopacity="1"
     objecttolerance="10"
     gridtolerance="10"
     guidetolerance="10"
     inkscape:pageopacity="0"
     inkscape:pageshadow="2"
     inkscape:window-width="640"
     inkscape:window-height="480"
     id="namedview4"
     showgrid="false"
     inkscape:zoom="0.89910093"
     inkscape:cx="169.95319"
     inkscape:cy="131.24222"
     inkscape:window-x="0"
     inkscape:window-y="0"
     inkscape:window-maximized="0"
     inkscape:current-layer="g10" /><g
     id="g10"
     inkscape:groupmode="layer"
     inkscape:label="gainAttenuation"
     transform="matrix(1.25,0,0,-1.25,-420.66775,300.52087)"><g
       id="g12" /><g
       id="g14"><path
         d="m -15.5,556.5 733,0 0,-576 -733,0 0,576 z"
         style="fill:#ffffff;fill-opacity:1;fill-rule:nonzero;stroke:none"
         id="path16"
         inkscape:connector-curvature="0" /><g
         id="g18"
         transform="matrix(1,0,0,-1,-14.5,555.5)"><path
           d="m 34,169 251.1,0"
           style="fill:none;stroke:#000000;stroke-width:1;stroke-linecap:butt;stroke-linejoin:miter;stroke-miterlimit:10;stroke-dasharray:none;stroke-opacity:1"
           id="path20"
           inkscape:connector-curvature="0" /></g><path
         d="m 278.6,386.5 -8,3 0,-6 8,3 z"
         style="fill:#000000;fill-opacity:1;fill-rule:nonzero;stroke:none"
         id="path22"
         inkscape:connector-curvature="0" /><g
         id="g24"
         transform="matrix(1,0,0,-1,-14.5,555.5)"><path
           d="m 293.1,169 -8,-3 0,6 8,-3 z"
           style="fill:none;stroke:#000000;stroke-width:1;stroke-linecap:butt;stroke-linejoin:miter;stroke-miterlimit:10;stroke-dasharray:none;stroke-opacity:1"
           id="path26"
           inkscape:connector-curvature="0" /></g><g
         id="g28"
         transform="matrix(1,0,0,-1,-14.5,555.5)"><path
           d="M 160,268.5 160,91.4"
           style="fill:none;stroke:#000000;stroke-width:1;stroke-linecap:butt;stroke-linejoin:miter;stroke-miterlimit:10;stroke-dasharray:none;stroke-opacity:1"
           id="path30"
           inkscape:connector-curvature="0" /></g><path
         d="m 145.5,472.1 -3,-8 6,0 -3,8 z"
         style="fill:#000000;fill-opacity:1;fill-rule:nonzero;stroke:none"
         id="path32"
         inkscape:connector-curvature="0" /><g
         id="g34"
         transform="matrix(1,0,0,-1,-14.5,555.5)"><path
           d="m 160,83.4 -3,8 6,0 -3,-8 z"
           style="fill:none;stroke:#000000;stroke-width:1;stroke-linecap:butt;stroke-linejoin:miter;stroke-miterlimit:10;stroke-dasharray:none;stroke-opacity:1"
           id="path36"
           inkscape:connector-curvature="0" /></g><g
         id="g38"
         transform="matrix(1,0,0,-1,-14.5,555.5)"><path
           d="m 47.5,233.5 41,0 142,-128 43,0"
           style="fill:none;stroke:#000000;stroke-width:2;stroke-linecap:butt;stroke-linejoin:miter;stroke-miterlimit:10;stroke-dasharray:none;stroke-opacity:1"
           id="path40"
           inkscape:connector-curvature="0" /></g><g
         id="g42"
         transform="matrix(1,0,0,-1,-14.5,555.5)"><path
           d="M 230.5,105.5 231,169"
           style="fill:none;stroke:#000000;stroke-width:1;stroke-linecap:butt;stroke-linejoin:miter;stroke-miterlimit:10;stroke-dasharray:1, 4;stroke-dashoffset:0;stroke-opacity:1"
           id="path44"
           inkscape:connector-curvature="0" /></g><g
         id="g46"
         transform="matrix(1,0,0,-1,-14.5,555.5)"><path
           d="m 87,169 0.50001,63.5"
           style="fill:none;stroke:#000000;stroke-width:1;stroke-linecap:butt;stroke-linejoin:miter;stroke-miterlimit:10;stroke-dasharray:1, 4;stroke-dashoffset:0;stroke-opacity:1"
           id="path48"
           inkscape:connector-curvature="0" /></g><g
         id="g50"
         transform="matrix(1,0,0,-1,-14.5,555.5)"><path
           d="m 119.5552,205.5066 12.4448,0 0,-11.5066 0.6953,-0.338"
           style="fill:none;stroke:#000000;stroke-width:1;stroke-linecap:butt;stroke-linejoin:miter;stroke-miterlimit:10;stroke-dasharray:none;stroke-opacity:1"
           id="path52"
           inkscape:connector-curvature="0" /></g><g
         id="g54"
         transform="matrix(1,0,0,-1,117.5,337.5)"><text
           transform="translate(-4.668945,5.5)"
           style="font-variant:normal;font-weight:normal;font-size:14px;font-family:Helvetica;-inkscape-font-specification:Helvetica;writing-mode:lr-tb;fill:#000000;fill-opacity:1;fill-rule:nonzero;stroke:none"
           id="text56"><tspan
             x="0"
             y="0"
             id="tspan58">K</tspan></text>
</g><g
         id="g60"
         transform="matrix(1,0,0,-1,216.5,377.5)"><text
           transform="translate(-4.668945,5.5)"
           style="font-variant:normal;font-weight:normal;font-size:14px;font-family:Helvetica;-inkscape-font-specification:Helvetica;writing-mode:lr-tb;fill:#000000;fill-opacity:1;fill-rule:nonzero;stroke:none"
           id="text62"><tspan
             x="0"
             y="0"
             id="tspan64">E</tspan></text>
</g><g
         id="g66"
         transform="matrix(1,0,0,-1,72.5,399.5)"><text
           transform="translate(-6.666992,5.5)"
           style="font-variant:normal;font-weight:normal;font-size:12px;font-family:Helvetica;-inkscape-font-specification:Helvetica;writing-mode:lr-tb;fill:#000000;fill-opacity:1;fill-rule:nonzero;stroke:none"
           id="text68"><tspan
             x="0"
             y="0"
             id="tspan70">-</tspan></text>
</g><g
         id="g72"
         transform="matrix(1,0,0,-1,72.5,399.5)"><text
           transform="translate(-2.670898,5.5)"
           style="font-variant:normal;font-weight:normal;font-size:14px;font-family:Helvetica;-inkscape-font-specification:Helvetica;writing-mode:lr-tb;fill:#000000;fill-opacity:1;fill-rule:nonzero;stroke:none"
           id="text74"><tspan
             x="0"
             y="0"
             id="tspan76">E</tspan></text>
</g><g
         id="g78"
         transform="matrix(1,0,0,-1,276.5,374.5)"><text
           transform="translate(-3.893066,5.5)"
           style="font-variant:normal;font-weight:normal;font-size:14px;font-family:Helvetica;-inkscape-font-specification:Helvetica;writing-mode:lr-tb;fill:#000000;fill-opacity:1;fill-rule:nonzero;stroke:none"
           id="text80"><tspan
             x="0"
             y="0"
             id="tspan82">u</tspan></text>
</g><g
         id="g84"
         transform="matrix(1,0,0,-1,165.5,466)"><text
           transform="translate(-10.5,5.5)"
           style="font-variant:normal;font-weight:normal;font-size:14px;font-family:Helvetica;-inkscape-font-specification:Helvetica;writing-mode:lr-tb;fill:#000000;fill-opacity:1;fill-rule:nonzero;stroke:none"
           id="text86"><tspan
             x="0 3.8892 8.5511999 16.337999"
             y="0"
             sodipodi:role="line"
             id="tspan88">f(u)</tspan></text>
</g><g
         id="g90"
         transform="matrix(1,0,0,-1,145.5,268)"><text
           transform="translate(-7.333008,4)"
           style="font-variant:normal;font-weight:normal;font-size:12px;font-family:Helvetica;-inkscape-font-specification:Helvetica;writing-mode:lr-tb;fill:#000000;fill-opacity:1;fill-rule:nonzero;stroke:none"
           id="text92"><tspan
             x="0 3.9960001 10.6704"
             y="0"
             sodipodi:role="line"
             id="tspan94">(a)</tspan></text>
</g><g
         id="g96"
         transform="matrix(1,0,0,-1,-14.5,555.5)"><path
           d="m 361,163.5 251.1,0"
           style="fill:none;stroke:#000000;stroke-width:1;stroke-linecap:butt;stroke-linejoin:miter;stroke-miterlimit:10;stroke-dasharray:none;stroke-opacity:1"
           id="path98"
           inkscape:connector-curvature="0" /></g><path
         d="m 605.6,392 -8,3 0,-6 8,3 z"
         style="fill:#000000;fill-opacity:1;fill-rule:nonzero;stroke:none"
         id="path100"
         inkscape:connector-curvature="0" /><g
         id="g102"
         transform="matrix(1,0,0,-1,-14.5,555.5)"><path
           d="m 620.1,163.5 -8,-3 0,6 8,-3 z"
           style="fill:none;stroke:#000000;stroke-width:1;stroke-linecap:butt;stroke-linejoin:miter;stroke-miterlimit:10;stroke-dasharray:none;stroke-opacity:1"
           id="path104"
           inkscape:connector-curvature="0" /></g><g
         id="g106"
         transform="matrix(1,0,0,-1,-14.5,555.5)"><path
           d="M 487,263 487,85.9"
           style="fill:none;stroke:#000000;stroke-width:1;stroke-linecap:butt;stroke-linejoin:miter;stroke-miterlimit:10;stroke-dasharray:none;stroke-opacity:1"
           id="path108"
           inkscape:connector-curvature="0" /></g><path
         d="m 472.5,477.6 -3,-8 6,0 -3,8 z"
         style="fill:#000000;fill-opacity:1;fill-rule:nonzero;stroke:none"
         id="path110"
         inkscape:connector-curvature="0" /><g
         id="g112"
         transform="matrix(1,0,0,-1,-14.5,555.5)"><path
           d="m 487,77.9 -3,8 6,0 -3,-8 z"
           style="fill:none;stroke:#000000;stroke-width:1;stroke-linecap:butt;stroke-linejoin:miter;stroke-miterlimit:10;stroke-dasharray:none;stroke-opacity:1"
           id="path114"
           inkscape:connector-curvature="0" /></g><g
         id="g116"
         transform="matrix(1,0,0,-1,-14.5,555.5)"><path
           d="m 404,212 83,0 0,-94 73,0"
           style="fill:none;stroke:#000000;stroke-width:2;stroke-linecap:butt;stroke-linejoin:miter;stroke-miterlimit:10;stroke-dasharray:none;stroke-opacity:1"
           id="path118"
           inkscape:connector-curvature="0" /></g><g
         id="g120"
         transform="matrix(1,0,0,-1,462,446.5)"><text
           transform="translate(-4.668945,5.5)"
           style="font-variant:normal;font-weight:normal;font-size:14px;font-family:Helvetica;-inkscape-font-specification:Helvetica;writing-mode:lr-tb;fill:#000000;fill-opacity:1;fill-rule:nonzero;stroke:none"
           id="text122"><tspan
             x="0"
             y="0"
             id="tspan124">E</tspan></text>
</g><g
         id="g126"
         transform="matrix(1,0,0,-1,485,341.5)"><text
           transform="translate(-6.666992,5.5)"
           style="font-variant:normal;font-weight:normal;font-size:12px;font-family:Helvetica;-inkscape-font-specification:Helvetica;writing-mode:lr-tb;fill:#000000;fill-opacity:1;fill-rule:nonzero;stroke:none"
           id="text128"><tspan
             x="0"
             y="0"
             id="tspan130">-</tspan></text>
</g><g
         id="g132"
         transform="matrix(1,0,0,-1,485,341.5)"><text
           transform="translate(-2.670898,5.5)"
           style="font-variant:normal;font-weight:normal;font-size:14px;font-family:Helvetica;-inkscape-font-specification:Helvetica;writing-mode:lr-tb;fill:#000000;fill-opacity:1;fill-rule:nonzero;stroke:none"
           id="text134"><tspan
             x="0"
             y="0"
             id="tspan136">E</tspan></text>
</g><g
         id="g138"
         transform="matrix(1,0,0,-1,603.5,380)"><text
           transform="translate(-3.893066,5.5)"
           style="font-variant:normal;font-weight:normal;font-size:14px;font-family:Helvetica;-inkscape-font-specification:Helvetica;writing-mode:lr-tb;fill:#000000;fill-opacity:1;fill-rule:nonzero;stroke:none"
           id="text140"><tspan
             x="0"
             y="0"
             id="tspan142">u</tspan></text>
</g><g
         id="g144"
         transform="matrix(1,0,0,-1,492.5,471.5)"><text
           transform="translate(-10.5,5.5)"
           style="font-variant:normal;font-weight:normal;font-size:14px;font-family:Helvetica;-inkscape-font-specification:Helvetica;writing-mode:lr-tb;fill:#000000;fill-opacity:1;fill-rule:nonzero;stroke:none"
           id="text146"><tspan
             x="0 3.8892 8.5511999 16.337999"
             y="0"
             sodipodi:role="line"
             id="tspan148">f(u)</tspan></text>
</g><g
         id="g150"
         transform="matrix(1,0,0,-1,472.5,268)"><text
           transform="translate(-7.333008,4)"
           style="font-variant:normal;font-weight:normal;font-size:12px;font-family:Helvetica;-inkscape-font-specification:Helvetica;writing-mode:lr-tb;fill:#000000;fill-opacity:1;fill-rule:nonzero;stroke:none"
           id="text152"><tspan
             x="0 3.9960001 10.6704"
             y="0"
             sodipodi:role="line"
             id="tspan154">(b)</tspan></text>
</g><g
         id="g156"
         transform="matrix(1,0,0,-1,-14.5,555.5)"><path
           d="m 29.75,420.5 251.1,0"
           style="fill:none;stroke:#000000;stroke-width:1;stroke-linecap:butt;stroke-linejoin:miter;stroke-miterlimit:10;stroke-dasharray:none;stroke-opacity:1"
           id="path158"
           inkscape:connector-curvature="0" /></g><path
         d="m 274.35,135 -8,3 0,-6 8,3 z"
         style="fill:#000000;fill-opacity:1;fill-rule:nonzero;stroke:none"
         id="path160"
         inkscape:connector-curvature="0" /><g
         id="g162"
         transform="matrix(1,0,0,-1,-14.5,555.5)"><path
           d="m 288.85,420.5 -8,-3 0,6 8,-3 z"
           style="fill:none;stroke:#000000;stroke-width:1;stroke-linecap:butt;stroke-linejoin:miter;stroke-miterlimit:10;stroke-dasharray:none;stroke-opacity:1"
           id="path164"
           inkscape:connector-curvature="0" /></g><g
         id="g166"
         transform="matrix(1,0,0,-1,-14.5,555.5)"><path
           d="m 155.75,520 0,-177.1"
           style="fill:none;stroke:#000000;stroke-width:1;stroke-linecap:butt;stroke-linejoin:miter;stroke-miterlimit:10;stroke-dasharray:none;stroke-opacity:1"
           id="path168"
           inkscape:connector-curvature="0" /></g><path
         d="m 141.25,220.6 -3,-8 6,0 -3,8 z"
         style="fill:#000000;fill-opacity:1;fill-rule:nonzero;stroke:none"
         id="path170"
         inkscape:connector-curvature="0" /><g
         id="g172"
         transform="matrix(1,0,0,-1,-14.5,555.5)"><path
           d="m 155.75,334.9 -3,8 6,0 -3,-8 z"
           style="fill:none;stroke:#000000;stroke-width:1;stroke-linecap:butt;stroke-linejoin:miter;stroke-miterlimit:10;stroke-dasharray:none;stroke-opacity:1"
           id="path174"
           inkscape:connector-curvature="0" /></g><g
         id="g176"
         transform="matrix(1,0,0,-1,-14.5,555.5)"><path
           d="m 43.25,485 40.5,-64 142.75,0 42.75,-64"
           style="fill:none;stroke:#000000;stroke-width:2;stroke-linecap:butt;stroke-linejoin:miter;stroke-miterlimit:10;stroke-dasharray:none;stroke-opacity:1"
           id="path178"
           inkscape:connector-curvature="0" /></g><g
         id="g180"
         transform="matrix(1,0,0,-1,-14.5,555.5)"><path
           d="m 226.5,421 0.25,-0.5"
           style="fill:none;stroke:#000000;stroke-width:1;stroke-linecap:butt;stroke-linejoin:miter;stroke-miterlimit:10;stroke-dasharray:1, 4;stroke-dashoffset:0;stroke-opacity:1"
           id="path182"
           inkscape:connector-curvature="0" /></g><g
         id="g184"
         transform="matrix(1,0,0,-1,53,84.5)"><text
           transform="translate(-4.668945,5.5)"
           style="font-variant:normal;font-weight:normal;font-size:14px;font-family:Helvetica;-inkscape-font-specification:Helvetica;writing-mode:lr-tb;fill:#000000;fill-opacity:1;fill-rule:nonzero;stroke:none"
           id="text186"><tspan
             x="0"
             y="0"
             id="tspan188">K</tspan></text>
</g><g
         id="g190"
         transform="matrix(1,0,0,-1,212.25,126)"><text
           transform="translate(-4.668945,5.5)"
           style="font-variant:normal;font-weight:normal;font-size:14px;font-family:Helvetica;-inkscape-font-specification:Helvetica;writing-mode:lr-tb;fill:#000000;fill-opacity:1;fill-rule:nonzero;stroke:none"
           id="text192"><tspan
             x="0"
             y="0"
             id="tspan194">E</tspan></text>
</g><g
         id="g196"
         transform="matrix(1,0,0,-1,68.25,148)"><text
           transform="translate(-6.666992,5.5)"
           style="font-variant:normal;font-weight:normal;font-size:12px;font-family:Helvetica;-inkscape-font-specification:Helvetica;writing-mode:lr-tb;fill:#000000;fill-opacity:1;fill-rule:nonzero;stroke:none"
           id="text198"><tspan
             x="0"
             y="0"
             id="tspan200">-</tspan></text>
</g><g
         id="g202"
         transform="matrix(1,0,0,-1,68.25,148)"><text
           transform="translate(-2.670898,5.5)"
           style="font-variant:normal;font-weight:normal;font-size:14px;font-family:Helvetica;-inkscape-font-specification:Helvetica;writing-mode:lr-tb;fill:#000000;fill-opacity:1;fill-rule:nonzero;stroke:none"
           id="text204"><tspan
             x="0"
             y="0"
             id="tspan206">E</tspan></text>
</g><g
         id="g208"
         transform="matrix(1,0,0,-1,272.25,123)"><text
           transform="translate(-3.893066,5.5)"
           style="font-variant:normal;font-weight:normal;font-size:14px;font-family:Helvetica;-inkscape-font-specification:Helvetica;writing-mode:lr-tb;fill:#000000;fill-opacity:1;fill-rule:nonzero;stroke:none"
           id="text210"><tspan
             x="0"
             y="0"
             id="tspan212">u</tspan></text>
</g><g
         id="g214"
         transform="matrix(1,0,0,-1,161.25,214.5)"><text
           transform="translate(-10.5,5.5)"
           style="font-variant:normal;font-weight:normal;font-size:14px;font-family:Helvetica;-inkscape-font-specification:Helvetica;writing-mode:lr-tb;fill:#000000;fill-opacity:1;fill-rule:nonzero;stroke:none"
           id="text216"><tspan
             x="0 3.8892 8.5511999 16.337999"
             y="0"
             sodipodi:role="line"
             id="tspan218">f(u)</tspan></text>
</g><g
         id="g220"
         transform="matrix(1,0,0,-1,141.25,16.5)"><text
           transform="translate(-6.996094,4)"
           style="font-variant:normal;font-weight:normal;font-size:12px;font-family:Helvetica;-inkscape-font-specification:Helvetica;writing-mode:lr-tb;fill:#000000;fill-opacity:1;fill-rule:nonzero;stroke:none"
           id="text222"><tspan
             x="0 3.9960001 9.9960003"
             y="0"
             sodipodi:role="line"
             id="tspan224">(c)</tspan></text>
</g><g
         id="g226"
         transform="matrix(1,0,0,-1,-14.5,555.5)"><path
           d="m 248,386.8446 12.4448,0 L 261.1401,370"
           style="fill:none;stroke:#000000;stroke-width:1;stroke-linecap:butt;stroke-linejoin:miter;stroke-miterlimit:10;stroke-dasharray:none;stroke-opacity:1"
           id="path228"
           inkscape:connector-curvature="0" /></g><g
         id="g230"
         transform="matrix(1,0,0,-1,243.9448,155.162)"><text
           transform="translate(-4.668945,5.5)"
           style="font-variant:normal;font-weight:normal;font-size:14px;font-family:Helvetica;-inkscape-font-specification:Helvetica;writing-mode:lr-tb;fill:#000000;fill-opacity:1;fill-rule:nonzero;stroke:none"
           id="text232"><tspan
             x="0"
             y="0"
             id="tspan234">K</tspan></text>
</g><g
         id="g236"
         transform="matrix(1,0,0,-1,-14.5,555.5)"><path
           d="m 68.6876,444.8023 0,16.6977 -8.6876,0 -1.56757,-0.492"
           style="fill:none;stroke:#000000;stroke-width:1;stroke-linecap:butt;stroke-linejoin:miter;stroke-miterlimit:10;stroke-dasharray:none;stroke-opacity:1"
           id="path238"
           inkscape:connector-curvature="0" /></g><g
         id="g240"
         transform="matrix(1,0,0,-1,-14.5,555.5)"><path
           d="m 356.75,420.5 251.1,0"
           style="fill:none;stroke:#000000;stroke-width:1;stroke-linecap:butt;stroke-linejoin:miter;stroke-miterlimit:10;stroke-dasharray:none;stroke-opacity:1"
           id="path242"
           inkscape:connector-curvature="0" /></g><path
         d="m 601.35,135 -8,3 0,-6 8,3 z"
         style="fill:#000000;fill-opacity:1;fill-rule:nonzero;stroke:none"
         id="path244"
         inkscape:connector-curvature="0" /><g
         id="g246"
         transform="matrix(1,0,0,-1,-14.5,555.5)"><path
           d="m 615.85,420.5 -8,-3 0,6 8,-3 z"
           style="fill:none;stroke:#000000;stroke-width:1;stroke-linecap:butt;stroke-linejoin:miter;stroke-miterlimit:10;stroke-dasharray:none;stroke-opacity:1"
           id="path248"
           inkscape:connector-curvature="0" /></g><g
         id="g250"
         transform="matrix(1,0,0,-1,-14.5,555.5)"><path
           d="m 482.75,520 0,-177.1"
           style="fill:none;stroke:#000000;stroke-width:1;stroke-linecap:butt;stroke-linejoin:miter;stroke-miterlimit:10;stroke-dasharray:none;stroke-opacity:1"
           id="path252"
           inkscape:connector-curvature="0" /></g><path
         d="m 468.25,220.6 -3,-8 6,0 -3,8 z"
         style="fill:#000000;fill-opacity:1;fill-rule:nonzero;stroke:none"
         id="path254"
         inkscape:connector-curvature="0" /><g
         id="g256"
         transform="matrix(1,0,0,-1,-14.5,555.5)"><path
           d="m 482.75,334.9 -3,8 6,0 -3,-8 z"
           style="fill:none;stroke:#000000;stroke-width:1;stroke-linecap:butt;stroke-linejoin:miter;stroke-miterlimit:10;stroke-dasharray:none;stroke-opacity:1"
           id="path258"
           inkscape:connector-curvature="0" /></g><g
         id="g260"
         transform="matrix(1,0,0,-1,-14.5,555.5)"><path
           d="m 367,502 44.25,-17 142,-128 57,-21"
           style="fill:none;stroke:#000000;stroke-width:2;stroke-linecap:butt;stroke-linejoin:miter;stroke-miterlimit:10;stroke-dasharray:none;stroke-opacity:1"
           id="path262"
           inkscape:connector-curvature="0" /></g><g
         id="g264"
         transform="matrix(1,0,0,-1,-14.5,555.5)"><path
           d="m 553.25,357 0.5,63.5"
           style="fill:none;stroke:#000000;stroke-width:1;stroke-linecap:butt;stroke-linejoin:miter;stroke-miterlimit:10;stroke-dasharray:1, 4;stroke-dashoffset:0;stroke-opacity:1"
           id="path266"
           inkscape:connector-curvature="0" /></g><g
         id="g268"
         transform="matrix(1,0,0,-1,-14.5,555.5)"><path
           d="m 409.75,420.5 0.5,63.5"
           style="fill:none;stroke:#000000;stroke-width:1;stroke-linecap:butt;stroke-linejoin:miter;stroke-miterlimit:10;stroke-dasharray:1, 4;stroke-dashoffset:0;stroke-opacity:1"
           id="path270"
           inkscape:connector-curvature="0" /></g><g
         id="g272"
         transform="matrix(1,0,0,-1,-14.5,555.5)"><path
           d="m 442.9469,456.4281 11.8031,0.5785 0,-11.5066 2.4901,-1.9559"
           style="fill:none;stroke:#000000;stroke-width:1;stroke-linecap:butt;stroke-linejoin:miter;stroke-miterlimit:10;stroke-dasharray:none;stroke-opacity:1"
           id="path274"
           inkscape:connector-curvature="0" /></g><g
         id="g276"
         transform="matrix(1,0,0,-1,444.5,87.5)"><text
           transform="translate(-8.562012,2.5)"
           style="font-variant:normal;font-weight:normal;font-size:14px;font-family:Helvetica;-inkscape-font-specification:Helvetica;writing-mode:lr-tb;fill:#000000;fill-opacity:1;fill-rule:nonzero;stroke:none"
           id="text278"><tspan
             x="0"
             y="0"
             id="tspan280">K</tspan></text>
</g><g
         id="g282"
         transform="matrix(1,0,0,-1,444.5,87.5)"><text
           transform="translate(0.7758789,8.5)"
           style="font-variant:normal;font-weight:normal;font-size:14px;font-family:Helvetica;-inkscape-font-specification:Helvetica;writing-mode:lr-tb;fill:#000000;fill-opacity:1;fill-rule:nonzero;stroke:none"
           id="text284"><tspan
             x="0"
             y="0"
             id="tspan286">1</tspan></text>
</g><g
         id="g288"
         transform="matrix(1,0,0,-1,539.25,123)"><text
           transform="translate(-10.5,2.5)"
           style="font-variant:normal;font-weight:normal;font-size:14px;font-family:Helvetica;-inkscape-font-specification:Helvetica;writing-mode:lr-tb;fill:#000000;fill-opacity:1;fill-rule:nonzero;stroke:none"
           id="text290"><tspan
             x="0"
             y="0"
             id="tspan292">A</tspan></text>
</g><g
         id="g294"
         transform="matrix(1,0,0,-1,539.25,123)"><text
           transform="translate(-1.162109,8.5)"
           style="font-variant:normal;font-weight:normal;font-size:14px;font-family:Helvetica;-inkscape-font-specification:Helvetica;writing-mode:lr-tb;fill:#000000;fill-opacity:1;fill-rule:nonzero;stroke:none"
           id="text296"><tspan
             x="0"
             y="0"
             id="tspan298">m</tspan></text>
</g><g
         id="g300"
         transform="matrix(1,0,0,-1,599.25,123)"><text
           transform="translate(-3.893066,5.5)"
           style="font-variant:normal;font-weight:normal;font-size:14px;font-family:Helvetica;-inkscape-font-specification:Helvetica;writing-mode:lr-tb;fill:#000000;fill-opacity:1;fill-rule:nonzero;stroke:none"
           id="text302"><tspan
             x="0"
             y="0"
             id="tspan304">u</tspan></text>
</g><g
         id="g306"
         transform="matrix(1,0,0,-1,488.25,214.5)"><text
           transform="translate(-10.5,5.5)"
           style="font-variant:normal;font-weight:normal;font-size:14px;font-family:Helvetica;-inkscape-font-specification:Helvetica;writing-mode:lr-tb;fill:#000000;fill-opacity:1;fill-rule:nonzero;stroke:none"
           id="text308"><tspan
             x="0 3.8892 8.5511999 16.337999"
             y="0"
             sodipodi:role="line"
             id="tspan310">f(u)</tspan></text>
</g><g
         id="g312"
         transform="matrix(1,0,0,-1,468.25,16.5)"><text
           transform="translate(-7.333008,4)"
           style="font-variant:normal;font-weight:normal;font-size:12px;font-family:Helvetica;-inkscape-font-specification:Helvetica;writing-mode:lr-tb;fill:#000000;fill-opacity:1;fill-rule:nonzero;stroke:none"
           id="text314"><tspan
             x="0 3.9960001 10.6704"
             y="0"
             sodipodi:role="line"
             id="tspan316">(d)</tspan></text>
</g><g
         id="g318"
         transform="matrix(1,0,0,-1,-14.5,555.5)"><path
           d="m 593.1152,342.3128 -21.1152,0 0,7.6872 -0.2945,0.2006"
           style="fill:none;stroke:#000000;stroke-width:1;stroke-linecap:butt;stroke-linejoin:miter;stroke-miterlimit:10;stroke-dasharray:none;stroke-opacity:1"
           id="path320"
           inkscape:connector-curvature="0" /></g><g
         id="g322"
         transform="matrix(1,0,0,-1,543.25,222.5)"><text
           transform="translate(-8.562012,2.5)"
           style="font-variant:normal;font-weight:normal;font-size:14px;font-family:Helvetica;-inkscape-font-specification:Helvetica;writing-mode:lr-tb;fill:#000000;fill-opacity:1;fill-rule:nonzero;stroke:none"
           id="text324"><tspan
             x="0"
             y="0"
             id="tspan326">K</tspan></text>
</g><g
         id="g328"
         transform="matrix(1,0,0,-1,543.25,222.5)"><text
           transform="translate(0.7758789,8.5)"
           style="font-variant:normal;font-weight:normal;font-size:14px;font-family:Helvetica;-inkscape-font-specification:Helvetica;writing-mode:lr-tb;fill:#000000;fill-opacity:1;fill-rule:nonzero;stroke:none"
           id="text330"><tspan
             x="0"
             y="0"
             id="tspan332">2</tspan></text>
</g><g
         id="g334"
         transform="matrix(1,0,0,-1,-14.5,555.5)"><path
           d="M 396.957,490.4911 375,490.7526 375,497 l 4.6671,0.1335"
           style="fill:none;stroke:#000000;stroke-width:1;stroke-linecap:butt;stroke-linejoin:miter;stroke-miterlimit:10;stroke-dasharray:none;stroke-opacity:1"
           id="path336"
           inkscape:connector-curvature="0" /></g><g
         id="g338"
         transform="matrix(1,0,0,-1,361,76.5)"><text
           transform="translate(-8.562012,2.5)"
           style="font-variant:normal;font-weight:normal;font-size:14px;font-family:Helvetica;-inkscape-font-specification:Helvetica;writing-mode:lr-tb;fill:#000000;fill-opacity:1;fill-rule:nonzero;stroke:none"
           id="text340"><tspan
             x="0"
             y="0"
             id="tspan342">K</tspan></text>
</g><g
         id="g344"
         transform="matrix(1,0,0,-1,361,76.5)"><text
           transform="translate(0.7758789,8.5)"
           style="font-variant:normal;font-weight:normal;font-size:14px;font-family:Helvetica;-inkscape-font-specification:Helvetica;writing-mode:lr-tb;fill:#000000;fill-opacity:1;fill-rule:nonzero;stroke:none"
           id="text346"><tspan
             x="0"
             y="0"
             id="tspan348">2</tspan></text>
</g><g
         id="g350"
         transform="matrix(1,0,0,-1,151.75,379)"><text
           transform="translate(-3.893066,5.5)"
           style="font-variant:normal;font-weight:normal;font-size:14px;font-family:Helvetica;-inkscape-font-specification:Helvetica;writing-mode:lr-tb;fill:#000000;fill-opacity:1;fill-rule:nonzero;stroke:none"
           id="text352"><tspan
             x="0"
             y="0"
             id="tspan354">0</tspan></text>
</g><g
         id="g356"
         transform="matrix(1,0,0,-1,465,383)"><text
           transform="translate(-3.893066,5.5)"
           style="font-variant:normal;font-weight:normal;font-size:14px;font-family:Helvetica;-inkscape-font-specification:Helvetica;writing-mode:lr-tb;fill:#000000;fill-opacity:1;fill-rule:nonzero;stroke:none"
           id="text358"><tspan
             x="0"
             y="0"
             id="tspan360">0</tspan></text>
</g><g
         id="g362"
         transform="matrix(1,0,0,-1,135,127)"><text
           transform="translate(-3.893066,5.5)"
           style="font-variant:normal;font-weight:normal;font-size:14px;font-family:Helvetica;-inkscape-font-specification:Helvetica;writing-mode:lr-tb;fill:#000000;fill-opacity:1;fill-rule:nonzero;stroke:none"
           id="text364"><tspan
             x="0"
             y="0"
             id="tspan366">0</tspan></text>
</g><g
         id="g368"
         transform="matrix(1,0,0,-1,475.5,127)"><text
           transform="translate(-3.893066,5.5)"
           style="font-variant:normal;font-weight:normal;font-size:14px;font-family:Helvetica;-inkscape-font-specification:Helvetica;writing-mode:lr-tb;fill:#000000;fill-opacity:1;fill-rule:nonzero;stroke:none"
           id="text370"><tspan
             x="0"
             y="0"
             id="tspan372">0</tspan></text>
</g><g
         id="g374"
         transform="matrix(1,0,0,-1,395.25,150)"><text
           transform="translate(-12.83105,2.5)"
           style="font-variant:normal;font-weight:normal;font-size:14px;font-family:Helvetica;-inkscape-font-specification:Helvetica;writing-mode:lr-tb;fill:#000000;fill-opacity:1;fill-rule:nonzero;stroke:none"
           id="text376"><tspan
             x="0 4.6620002"
             y="0"
             sodipodi:role="line"
             id="tspan378">-A</tspan></text>
</g><g
         id="g380"
         transform="matrix(1,0,0,-1,395.25,150)"><text
           transform="translate(1.168945,8.5)"
           style="font-variant:normal;font-weight:normal;font-size:14px;font-family:Helvetica;-inkscape-font-specification:Helvetica;writing-mode:lr-tb;fill:#000000;fill-opacity:1;fill-rule:nonzero;stroke:none"
           id="text382"><tspan
             x="0"
             y="0"
             id="tspan384">m</tspan></text>
</g></g></g></svg>